<svg xmlns="http://www.w3.org/2000/svg" viewBox="0 0 512 320" role="img" aria-label="Boulangerie Colson">
  <title>Boulangerie Colson</title>
  <rect width="512" height="320" fill="white" />
  <g fill="none" stroke="#F2994A" stroke-width="10" stroke-linecap="round" stroke-linejoin="round">
    <path d="M332 56c-48 18-96 78-96 136" />
    <path d="M320 72c-32 18-64 56-64 104" />
    <path d="M310 96c-20 16-40 36-48 64" />
  </g>
  <g fill="#F2994A">
    <path d="M316 88c16 4 28 14 34 28-18 2-30-6-34-28z" />
    <path d="M296 112c14 6 24 18 28 32-18 0-30-10-28-32z" />
    <path d="M276 136c12 8 20 20 22 34-18-2-28-14-22-34z" />
    <path d="M256 162c10 8 16 18 18 30-16-2-24-12-18-30z" />
  </g>
  <text x="48" y="210" fill="#8B5E3C" font-family="'Times New Roman', serif" font-size="64" font-weight="700">
    Colson
  </text>
  <text x="50" y="154" fill="#C4A58A" font-family="'Arial', sans-serif" font-size="28" letter-spacing="6">
    BOULANGERIE
  </text>
  <text x="50" y="254" fill="#E2554F" font-family="'Arial', sans-serif" font-size="24" font-style="italic">
    Châlons-en-Champagne
  </text>
</svg>
