<?xml version="1.0" encoding="UTF-8"?> <svg xmlns="http://www.w3.org/2000/svg" width="244" height="84" viewBox="0 0 244 84" fill="none"><path d="M217.742 48.8996V29.474L217.712 29.4936C213.345 32.6842 207.965 34.5714 202.142 34.5714V34.569L222.483 14.2298H233.585V69.4808C224.836 69.4808 217.742 60.2665 217.742 48.8996ZM202.146 0C179.03 0 160.292 18.7391 160.292 41.8548C160.292 52.4409 164.222 62.109 170.703 69.4796C170.598 69.3599 170.493 69.2399 170.389 69.1191C170.493 69.1218 170.598 69.1234 170.703 69.1234C178.202 69.1234 184.282 63.0433 184.282 55.5436C184.282 48.0446 178.202 41.9648 170.703 41.9648L170.701 14.231L170.703 14.2298H181.802L202.142 34.569V34.5714C196.319 34.5714 190.94 32.6842 186.572 29.4936L186.543 29.474L186.545 34.5786C189.785 38.2805 191.752 43.1241 191.752 48.4299C191.752 60.0554 182.329 69.4789 170.703 69.4796C178.374 78.2027 189.617 83.7089 202.146 83.7089C225.262 83.7089 244 64.9698 244 41.8548C244 18.7391 225.262 0 202.146 0Z" fill="#57B235"></path><path d="M41.2059 50.4336C35.4726 50.4336 30.8246 44.3956 30.8246 36.9472V24.2186L30.8053 24.2318C27.943 26.3221 24.4178 27.5591 20.6023 27.5591L20.6025 27.5573L33.9314 14.2296H41.2059V50.4336Z" fill="#57B235"></path><path d="M0 50.4336C5.73325 50.4336 10.3813 44.3956 10.3813 36.9472V24.2186L10.4009 24.2318C13.2626 26.3221 16.7879 27.5591 20.6033 27.5591L20.6025 27.5573L7.27455 14.2296H0V50.4336Z" fill="#57B235"></path><path d="M108.243 35.0115C108.243 32.3805 106.11 30.2476 103.479 30.2476C100.848 30.2476 98.7143 32.3805 98.7143 35.0115V44.2693C98.7143 47.6739 95.9552 50.4336 92.5504 50.4336V24.6027H95.5855L99.136 28.15C100.659 26.0035 103.165 24.6027 105.998 24.6027C110.642 24.6027 114.407 28.3683 114.407 33.012V44.3363C114.407 47.7038 111.61 50.4336 108.243 50.4336V35.0115Z" fill="#57B235"></path><path d="M82.4724 28.15L78.9226 24.6027H75.8875V50.4336C79.2916 50.4336 82.0514 47.6739 82.0514 44.2693V35.0115C82.0514 32.3805 84.184 30.2476 86.8159 30.2476C87.7424 30.2476 88.6027 30.5196 89.3346 30.9773V24.6027C86.502 24.6027 83.9961 26.0035 82.4724 28.15Z" fill="#57B235"></path><path d="M58.6908 44.2682C54.9624 44.2682 51.9402 41.2456 51.9402 37.5173C51.9402 33.7889 54.9624 30.7663 58.6908 30.7663C62.4191 30.7663 65.442 33.7889 65.442 37.5173C65.442 41.2456 62.4191 44.2682 58.6908 44.2682ZM68.7764 24.6027L65.9481 27.2747C63.8443 25.6588 61.2295 24.6757 58.3874 24.61C51.3955 24.772 45.776 30.4861 45.776 37.5173C45.776 44.6502 51.5583 50.4324 58.6908 50.4324C61.6419 50.4324 64.3613 49.4428 66.5368 47.7767C67.6492 49.3823 69.5046 50.4336 71.606 50.4336V24.6027H68.7764Z" fill="#57B235"></path><path d="M0 69.3989V58.7379H2.58994V67.3209H6.71568V69.3989H0Z" fill="#57B235"></path><path d="M30.7168 64.0122C30.7168 63.3886 30.6187 62.8715 30.4232 62.4604C30.2275 62.0497 29.9659 61.7222 29.6401 61.4774C29.3134 61.2334 28.9424 61.0594 28.5255 60.9554C28.1088 60.8514 27.6801 60.7995 27.2383 60.7995H25.9585V67.2566H27.1778C27.6399 67.2566 28.0842 67.2021 28.5107 67.0926C28.9376 66.9831 29.3134 66.8036 29.6401 66.5548C29.9659 66.305 30.2275 65.9727 30.4232 65.5561C30.6187 65.1404 30.7168 64.6258 30.7168 64.0122ZM33.322 64.0373C33.322 64.9709 33.1492 65.777 32.8028 66.4544C32.4564 67.1323 31.9994 67.6892 31.4322 68.1262C30.865 68.5624 30.2251 68.8837 29.5125 69.0893C28.7995 69.2956 28.0766 69.3984 27.3439 69.3984H23.3683V58.7372H27.2235C27.9762 58.7372 28.7194 58.8251 29.452 59.0008C30.1846 59.1765 30.8374 59.4674 31.4097 59.8737C31.9819 60.2801 32.4435 60.8251 32.7949 61.5075C33.1463 62.1905 33.322 63.0336 33.322 64.0373Z" fill="#57B235"></path><path d="M51.5872 62.0349C51.5872 61.7834 51.537 61.5779 51.4367 61.4175C51.3363 61.2566 51.201 61.1311 51.0301 61.0409C50.8594 60.9506 50.6663 60.8904 50.4504 60.8605C50.2343 60.8299 50.0111 60.8151 49.7804 60.8151H48.666V63.3297H49.7352C49.9761 63.3297 50.2068 63.3101 50.4279 63.2692C50.6486 63.2293 50.847 63.1591 51.0229 63.0587C51.1983 62.9582 51.3363 62.8256 51.4367 62.6597C51.537 62.4945 51.5872 62.2859 51.5872 62.0349ZM54.1623 62.0196C54.1623 62.642 54.0469 63.1665 53.816 63.5929C53.5851 64.0201 53.2736 64.364 52.8824 64.6246C52.4913 64.8858 52.039 65.0764 51.5272 65.1973C51.0155 65.3173 50.4829 65.3773 49.9307 65.3773H48.666V69.3984H46.0761V58.7372H49.9912C50.5735 58.7372 51.1182 58.7945 51.6253 58.91C52.132 59.0252 52.5739 59.2112 52.9505 59.4674C53.3269 59.7232 53.6226 60.0597 53.8387 60.4761C54.0546 60.8928 54.1623 61.4072 54.1623 62.0196Z" fill="#57B235"></path><path d="M60.1737 61.5829L58.8181 65.242H61.4983L60.1737 61.5829ZM63.0343 69.3984L62.2063 67.3049H58.0805L57.2974 69.3984H54.4964L58.9687 58.7372H61.4689L65.8956 69.3984H63.0343Z" fill="#57B235"></path><path d="M73.3829 62.005C73.3829 61.754 73.3296 61.5508 73.2238 61.395C73.1179 61.2394 72.9815 61.1187 72.815 61.0331C72.6486 60.9482 72.4625 60.8904 72.2551 60.8605C72.0483 60.8299 71.8488 60.8151 71.6579 60.8151H70.371V63.2998H71.5061C71.7178 63.2998 71.9351 63.2821 72.1572 63.2473C72.3787 63.2116 72.5806 63.1493 72.7624 63.0587C72.9441 62.9681 73.0928 62.8378 73.2085 62.6671C73.3247 62.4965 73.3829 62.2753 73.3829 62.005ZM73.4881 69.3984L71.1396 65.107H70.371V69.3984H67.7813V58.7372H71.8469C72.3585 58.7372 72.8585 58.7897 73.3449 58.8949C73.832 59.0008 74.269 59.1789 74.6551 59.4299C75.0418 59.6809 75.3502 60.0119 75.5816 60.4236C75.8122 60.8354 75.9279 61.3472 75.9279 61.9596C75.9279 62.6824 75.7321 63.2894 75.3404 63.7815C74.9488 64.2735 74.4066 64.6246 73.7146 64.8356L76.5001 69.3984H73.4881Z" fill="#57B235"></path><path d="M108.071 69.3984V61.8544H108.026L105.376 69.3984H103.569L101.099 61.8544H101.054V69.3984H98.4639V58.7372H102.128L104.555 65.5731H104.615L106.937 58.7372H110.661V69.3984H108.071Z" fill="#57B235"></path><path d="M130.756 69.3984L126.615 62.4259H126.57V69.3984H123.98V58.7372H126.916L131.042 65.6938H131.087V58.7372H133.677V69.3984H130.756Z" fill="#57B235"></path><path d="M38.6115 57.8352V55.244C38.6115 53.8134 39.7716 53.2832 41.2022 53.2832V55.244C41.2022 56.6751 40.0421 57.8352 38.6115 57.8352Z" fill="#57B235"></path><path d="M125.223 35.5731C126.058 32.7931 128.635 30.7665 131.686 30.7665C134.739 30.7665 137.315 32.7931 138.15 35.5731H125.223ZM144.602 37.5176C144.602 30.3848 138.82 24.6026 131.686 24.6026C124.554 24.6026 118.772 30.3848 118.772 37.5176C118.772 44.6504 124.554 50.4326 131.686 50.4326C136.997 50.4326 141.558 47.2277 143.542 42.6466C142.505 41.9068 141.217 41.4669 139.82 41.4669C138.316 41.4669 136.937 41.9756 135.861 42.821C134.714 43.727 133.263 44.2684 131.686 44.2684C128.635 44.2684 126.058 42.2421 125.223 39.4622H144.455C144.551 38.828 144.602 38.1785 144.602 37.5176Z" fill="#57B235"></path><path d="M77.5608 60.8151V58.7367H86.159V60.8151H83.1551V69.3989H80.5648V60.8151H77.5608Z" fill="#57B235"></path><path d="M135.849 60.8151V58.7367H144.447V60.8151H141.443V69.3989H138.853V60.8151H135.849Z" fill="#57B235"></path><path d="M16.5304 58.7379H9.09189V69.3984H16.5304V67.3209H11.6818V65.107H15.3396V63.0288H11.6818V60.8151H16.5304V58.7379Z" fill="#57B235"></path><path d="M43.4601 58.7379H36.0216V69.3984H43.4601V67.3209H38.6118V65.107H42.2695V63.0288H38.6118V60.8151H43.4601V58.7379Z" fill="#57B235"></path><path d="M95.7652 58.7379H88.3272V69.3984H95.7652V67.3209H90.9169V65.107H94.5744V63.0288H90.9169V60.8151H95.7652V58.7379Z" fill="#57B235"></path><path d="M121.281 58.7379H113.843V69.3984H121.281V67.3209H116.433V65.107H120.09V63.0288H116.433V60.8151H121.281V58.7379Z" fill="#57B235"></path></svg> 