<svg width="1200" height="630" viewBox="0 0 1200 630" fill="none" xmlns="http://www.w3.org/2000/svg">
  <defs>
    <linearGradient id="bg" x1="92" y1="48" x2="1092" y2="590" gradientUnits="userSpaceOnUse">
      <stop stop-color="#081A2B" />
      <stop offset="1" stop-color="#113B5C" />
    </linearGradient>
    <linearGradient id="accent" x1="229" y1="158" x2="938" y2="480" gradientUnits="userSpaceOnUse">
      <stop stop-color="#1DA1F2" />
      <stop offset="1" stop-color="#F97316" />
    </linearGradient>
    <radialGradient id="glow" cx="0" cy="0" r="1" gradientUnits="userSpaceOnUse" gradientTransform="translate(905 112) rotate(129.25) scale(576.295 865.747)">
      <stop stop-color="#22D3EE" stop-opacity="0.28" />
      <stop offset="1" stop-color="#22D3EE" stop-opacity="0" />
    </radialGradient>
  </defs>

  <rect width="1200" height="630" rx="36" fill="url(#bg)"/>
  <rect width="1200" height="630" rx="36" fill="url(#glow)"/>

  <circle cx="978" cy="84" r="118" fill="#FFFFFF" fill-opacity="0.06"/>
  <circle cx="1118" cy="246" r="168" fill="#F97316" fill-opacity="0.08"/>
  <circle cx="108" cy="548" r="196" fill="#22D3EE" fill-opacity="0.08"/>

  <g opacity="0.24" stroke="#D6ECFF" stroke-width="1.5">
    <path d="M82 154H1118"/>
    <path d="M82 476H1118"/>
    <path d="M207 72V558"/>
    <path d="M1024 72V558"/>
  </g>

  <rect x="86" y="74" width="1028" height="482" rx="30" fill="#0C2237" fill-opacity="0.72" stroke="#FFFFFF" stroke-opacity="0.16"/>

  <g opacity="0.18">
    <path d="M744 120C826 173 894 243 930 320C966 397 968 469 934 534" stroke="url(#accent)" stroke-width="24" stroke-linecap="round"/>
    <path d="M798 138C868 188 920 249 945 316C970 383 969 450 942 504" stroke="#FFFFFF" stroke-opacity="0.32" stroke-width="6" stroke-linecap="round"/>
  </g>

  <g>
    <circle cx="855" cy="324" r="112" fill="#F59E0B"/>
    <circle cx="855" cy="324" r="112" fill="url(#accent)" fill-opacity="0.88"/>
    <circle cx="855" cy="324" r="106" stroke="#FFF7ED" stroke-opacity="0.56" stroke-width="4"/>
    <path d="M790 246C823 267 854 279 893 289" stroke="#FFF7ED" stroke-opacity="0.9" stroke-width="8" stroke-linecap="round"/>
    <path d="M924 364L1006 446" stroke="#F4F7FB" stroke-width="18" stroke-linecap="round"/>
    <rect x="780" y="223" width="150" height="202" rx="75" transform="rotate(-18 780 223)" fill="#F8FAFC" fill-opacity="0.92"/>
    <rect x="790" y="237" width="130" height="174" rx="65" transform="rotate(-18 790 237)" stroke="#D6E4F0" stroke-width="3"/>
  </g>

  <g fill="#EAF4FF">
    <text x="146" y="170" font-size="24" font-weight="700" font-family="Arial, Helvetica, sans-serif" letter-spacing="2.8">CCTT</text>
    <text x="146" y="214" font-size="62" font-weight="800" font-family="Arial, Helvetica, sans-serif">Tournoi national</text>
    <text x="146" y="268" font-size="30" font-weight="600" font-family="Arial, Helvetica, sans-serif" fill-opacity="0.78">Chalons-en-Champagne</text>
  </g>

  <g fill="#FFFFFF">
    <text x="146" y="372" font-size="74" font-weight="800" font-family="Arial, Helvetica, sans-serif">Affiche</text>
    <text x="146" y="448" font-size="74" font-weight="800" font-family="Arial, Helvetica, sans-serif">a venir</text>
    <text x="146" y="494" font-size="24" font-weight="500" font-family="Arial, Helvetica, sans-serif" fill-opacity="0.78">Le visuel officiel sera ajoute ici des qu'il sera disponible.</text>
  </g>

  <g fill="#CDE7FF">
    <text x="146" y="539" font-size="20" font-weight="600" font-family="Arial, Helvetica, sans-serif">www.cctt.fr</text>
  </g>
</svg>
